<svg xmlns="http://www.w3.org/2000/svg" viewBox="0 0 1440 420" role="img" aria-label="Capa de palmeras tropicales">
  <g fill="none" stroke="#173c2c" stroke-linecap="round" stroke-linejoin="round">
    <path stroke-width="16" d="M132 410c14-116 19-217-4-308"/>
    <path stroke-width="10" d="M128 102c-48 9-84 33-112 72M130 101c50 3 95 20 136 50M130 98c-25-34-60-55-105-66M132 96c32-35 72-58 119-70M133 96c-5-42 8-76 38-102"/>
    <path stroke-width="14" d="M1266 420c9-100 17-184 42-272"/>
    <path stroke-width="9" d="M1308 148c-54 0-102 17-145 52M1308 147c39-22 85-31 139-26M1309 145c-17-39-48-71-94-95M1310 144c42-28 84-42 126-43M1309 144c19-41 46-72 82-94"/>
    <path stroke-width="10" d="M746 420c8-74 8-137-9-198"/>
    <path stroke-width="7" d="M738 224c-35 8-64 25-88 52M738 222c34 0 68 13 102 39M737 222c-16-30-40-50-72-61M738 221c24-29 54-45 91-50"/>
  </g>
  <g fill="#2e6545" opacity=".78">
    <path d="M0 370c110-38 198-39 274 0s162 38 258-2 191-40 286 0 184 45 269 15 202-46 353-13v50H0z"/>
  </g>
</svg>
